<?xml version="1.0" encoding="UTF-8"?>
<svg width="24px" height="24px" viewBox="0 0 24 24" version="1.1" xmlns="http://www.w3.org/2000/svg" xmlns:xlink="http://www.w3.org/1999/xlink">
    <title>Vector-2</title>
    <g id="修改" stroke="none" stroke-width="1" fill="none" fill-rule="evenodd">
        <g id="页面1" transform="translate(-1732.000000, -20.000000)" fill="#CECED0" fill-rule="nonzero">
            <g id="Vector-2" transform="translate(1732.000000, 20.000000)">
                <path d="M1.33333,13.3333 L9.33333,13.3333 C10.0667,13.3333 10.6667,12.7333 10.6667,12 L10.6667,1.33333 C10.6667,0.6 10.0667,0 9.33333,0 L1.33333,0 C0.6,0 0,0.6 0,1.33333 L0,12 C0,12.7333 0.6,13.3333 1.33333,13.3333 Z M1.33333,24 L9.33333,24 C10.0667,24 10.6667,23.4 10.6667,22.6667 L10.6667,17.3333 C10.6667,16.6 10.0667,16 9.33333,16 L1.33333,16 C0.6,16 0,16.6 0,17.3333 L0,22.6667 C0,23.4 0.6,24 1.33333,24 Z M14.6667,24 L22.6667,24 C23.4,24 24,23.4 24,22.6667 L24,12 C24,11.2667 23.4,10.6667 22.6667,10.6667 L14.6667,10.6667 C13.9333,10.6667 13.3333,11.2667 13.3333,12 L13.3333,22.6667 C13.3333,23.4 13.9333,24 14.6667,24 Z M13.3333,1.33333 L13.3333,6.66667 C13.3333,7.4 13.9333,8 14.6667,8 L22.6667,8 C23.4,8 24,7.4 24,6.66667 L24,1.33333 C24,0.6 23.4,0 22.6667,0 L14.6667,0 C13.9333,0 13.3333,0.6 13.3333,1.33333 Z" id="形状"></path>
            </g>
        </g>
    </g>
</svg>