<?xml version="1.0" encoding="UTF-8"?>
<svg width="16px" height="16px" viewBox="0 0 16 16" version="1.1" xmlns="http://www.w3.org/2000/svg" xmlns:xlink="http://www.w3.org/1999/xlink">
    <title>健康检测中枢</title>
    <g id="11.29一体化" stroke="none" stroke-width="1" fill="none" fill-rule="evenodd">
        <g id="集控调度大脑-无人车管理-目前位置浮窗" transform="translate(-36.000000, -344.000000)">
            <g id="编组-20" transform="translate(0.000000, 64.000000)">
                <g id="编组-6备份-3" transform="translate(12.000000, 264.000000)">
                    <g id="健康检测中枢" transform="translate(24.000000, 16.000000)">
                        <rect id="矩形" fill="#000000" fill-rule="nonzero" opacity="0" x="0" y="0" width="16" height="16"></rect>
                        <path d="M11.2329376,0 C11.9833714,0 12.5971811,0.450511453 12.5971811,1.0010723 L12.5971811,1.0010723 L12.5971811,2.35222111 L13.5359724,2.35222111 C14.8912275,2.35222111 16,3.42230628 16,4.73008108 L16,4.73008108 L16,13.6219472 C16,14.9299148 14.8912275,16 13.5359724,16 L13.5359724,16 L2.46382783,16 C1.10877246,16 4.26325641e-14,14.9299148 4.26325641e-14,13.6219472 L4.26325641e-14,13.6219472 L4.26325641e-14,4.73008108 C4.26325641e-14,3.4223063 1.10877246,2.35222111 2.46382783,2.35222111 L2.46382783,2.35222111 L3.40261914,2.35222111 L3.40261914,1.0010723 C3.40261914,0.450511453 4.0166286,0 4.76706242,0 L4.76706242,0 Z M10.4938891,0.895818016 L5.50611088,0.895818016 C5.00595483,0.895818016 4.59648203,1.19693009 4.59648203,1.56319956 L4.59648203,1.56319956 L4.59648203,2.35222111 L11.4041172,2.35222111 L11.403518,1.56319956 C11.403518,1.19615898 10.9942449,0.895818016 10.4938891,0.895818016 L10.4938891,0.895818016 Z" id="形状结合" fill="#FFFFFF" fill-rule="nonzero" opacity="0.5"></path>
                        <path d="M8.25,6 C8.66421356,6 9,6.33578644 9,6.75 L9,9 L11.25,9 C11.6642136,9 12,9.33578644 12,9.75 L12,10.25 C12,10.6642136 11.6642136,11 11.25,11 L9,11 L9,13.25 C9,13.6642136 8.66421356,14 8.25,14 L7.75,14 C7.33578644,14 7,13.6642136 7,13.25 L7,11 L4.75,11 C4.33578644,11 4,10.6642136 4,10.25 L4,9.75 C4,9.33578644 4.33578644,9 4.75,9 L7,9 L7,6.75 C7,6.33578644 7.33578644,6 7.75,6 L8.25,6 Z" id="形状结合" fill="#FFFFFF"></path>
                    </g>
                </g>
            </g>
        </g>
    </g>
</svg>