<?xml version="1.0" encoding="UTF-8"?>
<svg width="16px" height="16px" viewBox="0 0 16 16" version="1.1" xmlns="http://www.w3.org/2000/svg" xmlns:xlink="http://www.w3.org/1999/xlink">
    <title>机器人</title>
    <g id="页面-1" stroke="none" stroke-width="1" fill="none" fill-rule="evenodd">
        <g id="任务列表" transform="translate(-36.000000, -152.000000)" fill-rule="nonzero">
            <g id="编组-20" transform="translate(0.000000, 64.000000)">
                <g id="编组-6" transform="translate(12.000000, 72.000000)">
                    <g id="机器人" transform="translate(24.000000, 16.000000)">
                        <rect id="矩形" fill="#000000" opacity="0" x="0" y="0" width="16" height="16"></rect>
                        <path d="M12.3508,1.34142833 C12.4356917,1.34142833 12.5171046,1.37516032 12.57712,1.4352 C12.6372087,1.49522184 12.6709717,1.57666904 12.6709717,1.6616 C12.6709717,1.74653096 12.6372087,1.82797816 12.57712,1.888 L10.052,4.41242833 L13.92,4.4128 C14.4533333,4.4128 14.72,4.67946667 14.72,5.2128 L14.72,13.8528 C14.72,14.3861333 14.4533333,14.6528 13.92,14.6528 L2.08,14.6528 C1.54666667,14.6528 1.28,14.3861333 1.28,13.8528 L1.28,5.2128 C1.28,4.67946667 1.54666667,4.4128 2.08,4.4128 L5.798,4.41242833 L3.29152,1.9056 C3.18602425,1.79987207 3.17095342,1.63804861 3.24630753,1.51629339 L3.29152,1.4592 C3.3505833,1.40005905 3.43073695,1.36682747 3.51432,1.36682747 C3.59790305,1.36682747 3.6780567,1.40005905 3.73712,1.4592 L3.73712,1.4592 L6.63312,4.3552 C6.65100515,4.3730531 6.66629912,4.39251937 6.67900151,4.41313138 L9.15332969,4.41155851 C9.16225082,4.39972794 9.17210093,4.38837527 9.18288,4.3776 L12.12448,1.4352 C12.1844954,1.37516032 12.2659083,1.34142833 12.3508,1.34142833 Z" id="形状结合" fill="#FFFFFF" opacity="0.5"></path>
                        <path d="M4.48,8.0928 C4.48,8.71135892 4.98144108,9.2128 5.6,9.2128 C6.21855892,9.2128 6.72,8.71135892 6.72,8.0928 C6.72,7.47424108 6.21855892,6.9728 5.6,6.9728 C4.98144108,6.9728 4.48,7.47424108 4.48,8.0928 Z" id="路径" fill="#FFFFFF"></path>
                        <path d="M9.28,8.0928 C9.28,8.71135892 9.78144108,9.2128 10.4,9.2128 C11.0185589,9.2128 11.52,8.71135892 11.52,8.0928 C11.52,7.47424108 11.0185589,6.9728 10.4,6.9728 C9.78144108,6.9728 9.28,7.47424108 9.28,8.0928 Z" id="路径" fill="#FFFFFF"></path>
                        <path d="M0.32,7.1328 L0.32,7.1328 C0.533333333,7.1328 0.64,7.23946667 0.64,7.4528 L0.64,10.9728 C0.64,11.1861333 0.533333333,11.2928 0.32,11.2928 L0.32,11.2928 C0.106666667,11.2928 0,11.1861333 0,10.9728 L0,7.4528 C0,7.23946667 0.106666667,7.1328 0.32,7.1328 Z" id="路径" fill="#FFFFFF"></path>
                        <path d="M15.68,7.1328 L15.68,7.1328 C15.8933333,7.1328 16,7.23946667 16,7.4528 L16,10.9728 C16,11.1861333 15.8933333,11.2928 15.68,11.2928 L15.68,11.2928 C15.4666667,11.2928 15.36,11.1861333 15.36,10.9728 L15.36,7.4528 C15.36,7.23946667 15.4666667,7.1328 15.68,7.1328 Z" id="路径" fill="#FFFFFF"></path>
                    </g>
                </g>
            </g>
        </g>
    </g>
</svg>