<?xml version="1.0" encoding="UTF-8"?>
<svg width="28px" height="28px" viewBox="0 0 28 28" version="1.1" xmlns="http://www.w3.org/2000/svg" xmlns:xlink="http://www.w3.org/1999/xlink">
    <title>形状</title>
    <g id="页面-1" stroke="none" stroke-width="1" fill="none" fill-rule="evenodd">
        <g id="账号列表" transform="translate(-1786.000000, -18.000000)" fill="#CECED0" fill-rule="nonzero">
            <g id="Vector" transform="translate(1786.000000, 18.000000)">
                <path d="M13.9998,0.666504 C6.63984,0.666504 0.666504,6.63984 0.666504,13.9998 C0.666504,21.3598 6.63984,27.3332 13.9998,27.3332 C21.3598,27.3332 27.3332,21.3598 27.3332,13.9998 C27.3332,6.63984 21.3598,0.666504 13.9998,0.666504 Z M13.9998,5.99984 C16.5732,5.99984 18.6665,8.09317 18.6665,10.6665 C18.6665,13.2398 16.5732,15.3332 13.9998,15.3332 C11.4265,15.3332 9.33317,13.2398 9.33317,10.6665 C9.33317,8.09317 11.4265,5.99984 13.9998,5.99984 Z M13.9998,24.6665 C11.2932,24.6665 8.09317,23.5732 5.81317,20.8265 C8.14864,18.9941 11.0313,17.9982 13.9998,17.9982 C16.9683,17.9982 19.851,18.9941 22.1865,20.8265 C19.9065,23.5732 16.7065,24.6665 13.9998,24.6665 Z" id="形状"></path>
            </g>
        </g>
    </g>
</svg>