<?xml version="1.0" encoding="UTF-8"?>
<svg width="16px" height="16px" viewBox="0 0 16 16" version="1.1" xmlns="http://www.w3.org/2000/svg" xmlns:xlink="http://www.w3.org/1999/xlink">
    <title>视频分析智眼</title>
    <g id="11.29一体化" stroke="none" stroke-width="1" fill="none" fill-rule="evenodd">
        <g id="集控调度大脑-无人车管理-目前位置浮窗" transform="translate(-36.000000, -296.000000)" fill-rule="nonzero">
            <g id="编组-20" transform="translate(0.000000, 64.000000)">
                <g id="编组-6备份" transform="translate(12.000000, 216.000000)">
                    <g id="视频分析智眼" transform="translate(24.000000, 16.000000)">
                        <rect id="矩形" fill="#000000" opacity="0" x="0" y="0" width="16" height="16"></rect>
                        <rect id="矩形" fill="#FFFFFF" opacity="0.5" x="0" y="0" width="16" height="16" rx="4"></rect>
                        <path d="M4.99928735,8.87320465 C5.00895802,8.64329454 4.91990681,8.41877382 4.75035475,8.2455823 C4.58474392,8.08149254 4.33681274,8.00169795 4.00357259,8.00169795 C3.71772196,7.98648624 3.43692316,8.07396755 3.22366513,8.2446738 C3.03435832,8.40592348 2.95755015,8.6460501 3.02291052,8.87229615 L3.02291052,11.1254554 C3.01674605,11.3584012 3.11928211,11.5831502 3.30596984,11.7458936 C3.4908089,11.9136393 3.74517906,12.0054996 4.00859536,11.9996317 C4.2701693,12.0065998 4.52284219,11.9144287 4.70417961,11.7458936 C4.8862751,11.5798305 4.99041167,11.3578678 4.99526599,11.1254554 L4.99526599,8.87320465 L4.99928735,8.87320465 Z" id="路径" fill="#FFFFFF"></path>
                        <path d="M8.99986111,4.87480842 C9.00434076,4.64109118 8.90029548,4.41583879 8.71166996,4.2508902 C8.52304443,4.08594161 8.26608607,3.99550479 7.99993055,4.00039263 C7.73499406,3.99321574 7.47894611,4.08470309 7.29499362,4.2522705 C7.11099705,4.41837638 7.00557926,4.6395654 7,4.87123007 L7,11.1288147 C7.00613063,11.3601181 7.11148592,11.5808627 7.29499362,11.7468971 C7.47898699,11.9145099 7.73490932,12.0062759 7.99993055,11.9996661 C8.26681582,12.0051889 8.52445994,11.9137293 8.71198741,11.7468971 C8.90118105,11.5847753 9.00509345,11.3608848 8.99884624,11.1288286 L8.99986111,4.87480842 Z" id="路径" fill="#FFFFFF"></path>
                        <path d="M12.9949724,7.88179728 C12.9896547,7.63693297 12.8639592,7.40655582 12.6512861,7.25188215 C12.4426242,7.08901261 12.1745589,6.99974039 11.8974073,7.00082231 C11.6385359,6.99035368 11.3872193,7.08024377 11.2080394,7.24739318 C11.0337466,7.41727997 10.9630479,7.65231475 11.0185603,7.8773083 L11.0185603,11.1222466 C11.0127554,11.3561574 11.1160656,11.5817054 11.3037845,11.7449513 C11.489378,11.9133149 11.7447904,12.005516 12.009288,11.9996303 C12.2719333,12.0066239 12.5256412,11.9141161 12.7077213,11.7449653 C12.8901325,11.5780409 12.9946208,11.3554268 13,11.1222606 L13,7.88178325 L12.9949724,7.88179728 Z" id="路径" fill="#FFFFFF"></path>
                    </g>
                </g>
            </g>
        </g>
    </g>
</svg>