<?xml version="1.0" encoding="UTF-8"?>
<svg width="16px" height="16px" viewBox="0 0 16 16" version="1.1" xmlns="http://www.w3.org/2000/svg" xmlns:xlink="http://www.w3.org/1999/xlink">
    <title>账号</title>
    <g id="页面-1" stroke="none" stroke-width="1" fill="none" fill-rule="evenodd">
        <g id="账号列表" transform="translate(-36.000000, -104.000000)" fill-rule="nonzero">
            <g id="编组-20" transform="translate(0.000000, 64.000000)">
                <g id="账号" transform="translate(36.000000, 40.000000)">
                    <rect id="矩形" fill="#000000" opacity="0" x="0" y="0" width="16" height="16"></rect>
                    <path d="M6.1115028,9.19876542 C2.99737913,9.19876542 0.671776078,11.2166856 0.671776078,14.1469987 L0.671776078,14.4626734 C0.671776078,15.994428 3.16387419,15.994428 6.31928864,15.994428 L9.67050128,15.994428 C12.7007114,15.994428 15.3180139,15.994428 15.3180139,14.4626734 L15.3180139,14.1469987 C15.3180139,11.2166856 12.9924108,9.19876542 9.87828712,9.19876542 L6.1115028,9.19876542 L6.1115028,9.19876542 Z" id="路径" fill="#FFFFFF"></path>
                    <path d="M7.82706794,8.4275603 C10.2938588,8.4275603 12.3011233,6.5388403 12.3011233,4.21590116 C12.3011233,1.89429398 10.2938588,0.00557398438 7.82706794,0.00557398438 C5.36160903,0.00557398438 3.35434455,1.89429398 3.35434455,4.21590116 C3.35434455,6.53884028 5.36160903,8.4275603 7.82706794,8.4275603 Z" id="路径" fill="#FFFFFF" opacity="0.5"></path>
                </g>
            </g>
        </g>
    </g>
</svg>