<?xml version="1.0" encoding="UTF-8"?>
<svg width="16px" height="16px" viewBox="0 0 16 16" version="1.1" xmlns="http://www.w3.org/2000/svg" xmlns:xlink="http://www.w3.org/1999/xlink">
    <title>集控调度大脑</title>
    <g id="11.29一体化" stroke="none" stroke-width="1" fill="none" fill-rule="evenodd">
        <g id="集控调度大脑-无人车管理-目前位置浮窗" transform="translate(-35.000000, -104.000000)" fill-rule="nonzero">
            <g id="编组-20" transform="translate(0.000000, 64.000000)">
                <g id="编组-6" transform="translate(12.000000, 24.000000)">
                    <g id="集控调度大脑" transform="translate(23.000000, 16.000000)">
                        <rect id="矩形" fill="#000000" opacity="0" x="0" y="0" width="16" height="16"></rect>
                        <rect id="矩形" fill="#FFFFFF" opacity="0.5" x="0" y="0" width="16" height="16" rx="4"></rect>
                        <path d="M12.6666667,10.5666667 C12.6666667,10.9333333 12.3666667,11.2 12.0333333,11.2 L7.7,11.2 C7.43333333,11.8 6.86666667,12.2 6.16666667,12.2 C5.46666667,12.2 4.9,11.8 4.63333333,11.2 L3.96666667,11.2 C3.6,11.2 3.33333333,10.9 3.33333333,10.5666667 L3.33333333,10.5333333 C3.33333333,10.1666667 3.63333333,9.9 3.96666667,9.9 L4.63333333,9.9 C4.9,9.3 5.46666666,8.9 6.16666667,8.9 C6.86666669,8.9 7.43333334,9.3 7.7,9.9 L12.0333333,9.9 C12.4,9.9 12.6666667,10.2 12.6666667,10.5333333 L12.6666667,10.5666667 Z" id="路径" fill="#FFFFFF"></path>
                        <path d="M12.6666667,5.56666667 C12.6666667,5.93333334 12.3666667,6.2 12.0333333,6.2 L11.3666667,6.2 C11.1,6.8 10.5333333,7.2 9.83333333,7.2 C9.13333331,7.2 8.56666666,6.8 8.3,6.2 L3.96666667,6.2 C3.6,6.2 3.33333333,5.9 3.33333333,5.56666667 L3.33333333,5.53333333 C3.33333333,5.16666666 3.63333333,4.9 3.96666667,4.9 L8.3,4.9 C8.56666667,4.3 9.13333333,3.9 9.83333333,3.9 C10.5333333,3.9 11.1,4.3 11.3666667,4.9 L12.0333333,4.9 C12.4,4.9 12.6666667,5.2 12.6666667,5.53333333 L12.6666667,5.56666667 Z" id="路径" fill="#FFFFFF"></path>
                    </g>
                </g>
            </g>
        </g>
    </g>
</svg>