<?xml version="1.0" encoding="UTF-8"?>
<svg width="16px" height="16px" viewBox="0 0 16 16" version="1.1" xmlns="http://www.w3.org/2000/svg" xmlns:xlink="http://www.w3.org/1999/xlink">
    <title>高级管理</title>
    <g id="11.29一体化" stroke="none" stroke-width="1" fill="none" fill-rule="evenodd">
        <g id="集控调度大脑-无人车管理-目前位置浮窗" transform="translate(-35.000000, -392.000000)" fill-rule="nonzero">
            <g id="编组-20" transform="translate(0.000000, 64.000000)">
                <g id="编组-6备份-2" transform="translate(12.000000, 312.000000)">
                    <g id="高级管理" transform="translate(23.000000, 16.000000)">
                        <rect id="矩形" fill="#000000" opacity="0" x="0" y="0" width="16" height="16"></rect>
                        <path d="M14.5666667,6.56666667 L13.155,6.56666667 C13.0383333,6.14333333 12.87,5.74166667 12.6583333,5.36833333 L13.6566667,4.37 C13.9166667,4.11 13.9166667,3.68666667 13.6566667,3.42666667 L12.5716667,2.34166667 C12.3116667,2.08166667 11.8883333,2.08166667 11.6283333,2.34166667 L10.63,3.34 C10.2566667,3.12833333 9.855,2.96 9.43166667,2.84333333 L9.43166667,1.43333333 C9.43166667,1.06666667 9.13166667,0.766666667 8.765,0.766666667 L7.23166667,0.766666667 C6.865,0.766666667 6.565,1.06666667 6.565,1.43333333 L6.565,2.845 C6.14166667,2.96166667 5.74,3.13 5.36666667,3.34166667 L4.36833333,2.34333333 C4.10833333,2.08333333 3.685,2.08333333 3.425,2.34333333 L2.34,3.42833333 C2.08,3.68833333 2.08,4.11166667 2.34,4.37166667 L3.33833333,5.37 C3.12666667,5.74333333 2.95833333,6.145 2.84166667,6.56833333 L1.43333333,6.56833333 C1.06666667,6.56833333 0.766666667,6.86833333 0.766666667,7.235 L0.766666667,8.76833333 C0.766666667,9.135 1.06666667,9.435 1.43333333,9.435 L2.845,9.435 C2.96166667,9.85833333 3.13,10.26 3.34166667,10.6333333 L2.34333333,11.6316667 C2.08333333,11.8916667 2.08333333,12.315 2.34333333,12.575 L3.42833333,13.66 C3.68833333,13.92 4.11166667,13.92 4.37166667,13.66 L5.37,12.6616667 C5.74333333,12.8733333 6.145,13.0416667 6.56833333,13.1583333 L6.56833333,14.5666667 C6.56833333,14.9333333 6.86833333,15.2333333 7.235,15.2333333 L8.76833333,15.2333333 C9.135,15.2333333 9.435,14.9333333 9.435,14.5666667 L9.435,13.155 C9.85833333,13.0383333 10.26,12.87 10.6333333,12.6583333 L11.6316667,13.6566667 C11.8916667,13.9166667 12.315,13.9166667 12.575,13.6566667 L13.66,12.5716667 C13.92,12.3116667 13.92,11.8883333 13.66,11.6283333 L12.6616667,10.63 C12.8733333,10.2566667 13.0416667,9.855 13.1583333,9.43166667 L14.5666667,9.43166667 C14.9333333,9.43166667 15.2333333,9.13166667 15.2333333,8.765 L15.2333333,7.23166667 C15.2333333,6.86666667 14.9333333,6.56666667 14.5666667,6.56666667 L14.5666667,6.56666667 Z M8,10.9333333 C6.38,10.9333333 5.06666667,9.62 5.06666667,8 C5.06666667,6.38 6.38,5.06666667 8,5.06666667 C9.62,5.06666667 10.9333333,6.38 10.9333333,8 C10.9333333,9.62 9.62,10.9333333 8,10.9333333 Z" id="形状" fill="#FFFFFF" opacity="0.5"></path>
                        <path d="M6.53333333,8 C6.53333333,8.81001763 7.18998237,9.46666667 8,9.46666667 C8.81001763,9.46666667 9.46666667,8.81001763 9.46666667,8 C9.46666667,7.18998237 8.81001763,6.53333333 8,6.53333333 C7.18998237,6.53333333 6.53333333,7.18998237 6.53333333,8 L6.53333333,8 Z" id="路径" fill="#FFFFFF"></path>
                    </g>
                </g>
            </g>
        </g>
    </g>
</svg>